<svg width="91" height="87" viewBox="0 0 91 87" fill="none" xmlns="http://www.w3.org/2000/svg">
<path fill-rule="evenodd" clip-rule="evenodd" d="M56.5817 39.6455C55.5373 40.8719 55.2058 42.4788 55.2371 43.5203C55.238 43.5504 55.2385 43.5806 55.2385 43.6108V84.1906C55.2385 85.7422 54.0665 87 52.6208 87C51.1752 87 50.0032 85.7422 50.0032 84.1906V43.652C49.9484 41.4702 50.5834 38.3606 52.7174 35.8548C54.9647 33.2159 58.5328 31.6416 63.5882 32.0699C65.0294 32.192 66.1055 33.5449 65.9917 35.0917C65.878 36.6384 64.6174 37.7933 63.1762 37.6712C59.3899 37.3504 57.5288 38.5334 56.5817 39.6455Z" fill="#222222"/>
<path fill-rule="evenodd" clip-rule="evenodd" d="M37.4183 49.7619C38.4627 51.0069 38.7942 52.6383 38.7629 53.6956C38.762 53.7263 38.7615 53.7569 38.7615 53.7876V84.1479C38.7615 85.7231 39.9335 87 41.3792 87C42.8248 87 43.9968 85.7231 43.9968 84.1479V53.8294C44.0516 51.6144 43.4166 48.4574 41.2826 45.9135C39.0353 43.2344 35.4672 41.6361 30.4118 42.071C28.9706 42.1949 27.8945 43.5684 28.0083 45.1387C28.122 46.709 29.3826 47.8815 30.8238 47.7576C34.6101 47.4319 36.4712 48.6329 37.4183 49.7619Z" fill="#222222"/>
<path fill-rule="evenodd" clip-rule="evenodd" d="M47 6.42857C43.2392 6.42857 40.1905 9.59456 40.1905 13.5C40.1905 17.4054 43.2392 20.5714 47 20.5714C50.7608 20.5714 53.8095 17.4054 53.8095 13.5C53.8095 9.59456 50.7608 6.42857 47 6.42857ZM47 27C54.1797 27 60 20.9558 60 13.5C60 6.04416 54.1797 0 47 0C39.8203 0 34 6.04416 34 13.5C34 20.9558 39.8203 27 47 27Z" fill="#222222"/>
<path fill-rule="evenodd" clip-rule="evenodd" d="M62.3103 41C60.4821 41 59 42.567 59 44.5C59 46.433 60.4821 48 62.3103 48H78.4943C80.3225 48 81.8046 46.433 81.8046 44.5C81.8046 42.567 80.3225 41 78.4943 41H62.3103ZM87.6897 48C89.5179 48 91 46.433 91 44.5C91 42.567 89.5179 41 87.6897 41C85.8614 41 84.3793 42.567 84.3793 44.5C84.3793 46.433 85.8614 48 87.6897 48Z" fill="url(#paint0_linear_12_195)"/>
<path fill-rule="evenodd" clip-rule="evenodd" d="M71.2857 38C73.1004 38 74.5714 36.6569 74.5714 35C74.5714 33.3431 73.1004 32 71.2857 32C69.4711 32 68 33.3431 68 35C68 36.6569 69.4711 38 71.2857 38ZM79.6825 32C77.8679 32 76.3968 33.3431 76.3968 35C76.3968 36.6569 77.8679 38 79.6825 38H87.7143C89.5289 38 91 36.6569 91 35C91 33.3431 89.5289 32 87.7143 32H79.6825Z" fill="url(#paint1_linear_12_195)"/>
<path fill-rule="evenodd" clip-rule="evenodd" d="M3.3 38C5.12254 38 6.6 36.6569 6.6 35C6.6 33.3431 5.12254 32 3.3 32C1.47746 32 0 33.3431 0 35C0 36.6569 1.47746 38 3.3 38ZM12.1 32C10.2775 32 8.8 33.3431 8.8 35C8.8 36.6569 10.2775 38 12.1 38H40.7C42.5225 38 44 36.6569 44 35C44 33.3431 42.5225 32 40.7 32H12.1Z" fill="url(#paint2_linear_12_195)"/>
<path fill-rule="evenodd" clip-rule="evenodd" d="M6.33871 48C8.18263 48 9.67742 46.433 9.67742 44.5C9.67742 42.567 8.18263 41 6.33871 41C4.49479 41 3 42.567 3 44.5C3 46.433 4.49479 48 6.33871 48ZM22.6613 48C24.5052 48 26 46.433 26 44.5C26 42.567 24.5052 41 22.6613 41C20.8174 41 19.3226 42.567 19.3226 44.5C19.3226 46.433 20.8174 48 22.6613 48Z" fill="url(#paint3_linear_12_195)"/>
<defs>
<linearGradient id="paint0_linear_12_195" x1="91" y1="44.8889" x2="59.3678" y2="44.8889" gradientUnits="userSpaceOnUse">
<stop stop-color="#101183"/>
<stop offset="1" stop-color="#6EDAF9"/>
</linearGradient>
<linearGradient id="paint1_linear_12_195" x1="90.6349" y1="35" x2="68.0012" y2="35.3998" gradientUnits="userSpaceOnUse">
<stop stop-color="#72E2FE"/>
<stop offset="1" stop-color="#06117D"/>
</linearGradient>
<linearGradient id="paint2_linear_12_195" x1="0" y1="35.3333" x2="44" y2="35.3333" gradientUnits="userSpaceOnUse">
<stop stop-color="#E603FF"/>
<stop offset="1" stop-color="#06117D"/>
</linearGradient>
<linearGradient id="paint3_linear_12_195" x1="3" y1="44.8889" x2="26" y2="44.8889" gradientUnits="userSpaceOnUse">
<stop stop-color="#0E1182"/>
<stop offset="1" stop-color="#E004FC"/>
</linearGradient>
</defs>
</svg>
