<svg width="218" height="82" viewBox="0 0 218 82" fill="none" xmlns="http://www.w3.org/2000/svg">
<path d="M20.08 61.32C15.52 61.32 11.28 59.8 7.92 57.24V77.16C7.92 79.32 6.16 81.08 4 81.08C1.76 81.08 2.98023e-08 79.32 2.98023e-08 77.16V41.32V41.24C2.98023e-08 30.2 9.04 21.16 20.08 21.16C31.2 21.16 40.16 30.2 40.16 41.24C40.16 52.36 31.2 61.32 20.08 61.32ZM20.08 29.08C13.36 29.08 7.92 34.52 7.92 41.24V41.32C7.92 47.96 13.36 53.4 20.08 53.4C26.8 53.4 32.24 47.96 32.24 41.24C32.24 34.6 26.8 29.08 20.08 29.08ZM64.8475 20.92C67.0875 20.92 68.8475 22.68 68.8475 24.84C68.8475 27 67.0875 28.84 64.8475 28.84C58.1275 28.84 52.6875 34.28 52.6875 41V57.08C52.6875 59.24 50.9275 61.08 48.7675 61.08C46.5275 61.08 44.7675 59.24 44.7675 57.08V41C44.7675 29.88 53.8075 20.92 64.8475 20.92ZM88.6756 61C77.6356 61 68.5956 51.96 68.5956 40.92C68.5956 29.8 77.6356 20.84 88.6756 20.84C99.7956 20.84 108.756 29.8 108.756 40.92C108.756 51.96 99.7956 61 88.6756 61ZM88.6756 28.76C81.9556 28.76 76.5156 34.2 76.5156 40.92C76.5156 47.56 81.9556 53.08 88.6756 53.08C95.3956 53.08 100.836 47.56 100.836 40.92C100.836 34.2 95.3956 28.76 88.6756 28.76ZM133.519 61C122.479 61 113.439 51.96 113.439 40.92C113.439 29.8 122.479 20.84 133.519 20.84C144.639 20.84 153.599 29.8 153.599 40.92C153.599 51.96 144.639 61 133.519 61ZM133.519 28.76C126.799 28.76 121.359 34.2 121.359 40.92C121.359 47.56 126.799 53.08 133.519 53.08C140.239 53.08 145.679 47.56 145.679 40.92C145.679 34.2 140.239 28.76 133.519 28.76ZM176.733 20.84C178.973 20.84 180.733 22.6 180.733 24.76C180.733 27 178.973 28.76 176.733 28.76H169.693V57C169.693 59.24 167.933 61 165.693 61C163.533 61 161.773 59.24 161.773 57V28.76H157.373C155.213 28.76 153.452 27 153.452 24.76C153.452 22.6 155.213 20.84 157.373 20.84H161.773C161.693 15.16 163.773 9.96 167.613 6.12C169.773 3.96 172.253 2.36 175.133 1.39999C177.133 0.599996 179.453 1.72 180.173 3.8C180.893 5.8 179.853 8.12 177.773 8.84C176.093 9.4 174.573 10.36 173.213 11.72C170.812 14.12 169.693 17.24 169.693 20.84H176.733ZM213.476 21.16C215.716 21.16 217.476 22.92 217.476 25.08V64.52C217.476 73.56 210.036 81 200.916 81C194.596 81 188.916 77.4 186.116 71.72C185.156 69.8 185.956 67.4 187.956 66.44C189.876 65.48 192.276 66.36 193.156 68.28C194.676 71.24 197.636 73.08 200.916 73.08C205.716 73.08 209.556 69.24 209.556 64.52V58.76C207.156 60.2 204.356 61 201.316 61C192.516 61 185.316 53.88 185.236 45.08C185.236 45 185.236 45 185.236 45V25.08C185.236 22.92 186.996 21.16 189.156 21.16C191.316 21.16 193.076 22.92 193.076 25.08V44.92C193.076 49.48 196.836 53.16 201.316 53.16C205.876 53.16 209.556 49.48 209.556 44.92V25.08C209.556 22.92 211.316 21.16 213.476 21.16Z" fill="#171717"/>
</svg>
