<svg width="250" height="40" viewBox="0 0 354 87" fill="none" xmlns="http://www.w3.org/2000/svg">
<path d="M154.08 61.32C149.52 61.32 145.28 59.8 141.92 57.24V77.16C141.92 79.32 140.16 81.08 138 81.08C135.76 81.08 134 79.32 134 77.16V41.32V41.24C134 30.2 143.04 21.16 154.08 21.16C165.2 21.16 174.16 30.2 174.16 41.24C174.16 52.36 165.2 61.32 154.08 61.32ZM154.08 29.08C147.36 29.08 141.92 34.52 141.92 41.24V41.32C141.92 47.96 147.36 53.4 154.08 53.4C160.8 53.4 166.24 47.96 166.24 41.24C166.24 34.6 160.8 29.08 154.08 29.08ZM198.848 20.92C201.088 20.92 202.848 22.68 202.848 24.84C202.848 27 201.088 28.84 198.848 28.84C192.128 28.84 186.688 34.28 186.688 41V57.08C186.688 59.24 184.928 61.08 182.768 61.08C180.528 61.08 178.768 59.24 178.768 57.08V41C178.768 29.88 187.808 20.92 198.848 20.92ZM222.676 61C211.636 61 202.596 51.96 202.596 40.92C202.596 29.8 211.636 20.84 222.676 20.84C233.796 20.84 242.756 29.8 242.756 40.92C242.756 51.96 233.796 61 222.676 61ZM222.676 28.76C215.956 28.76 210.516 34.2 210.516 40.92C210.516 47.56 215.956 53.08 222.676 53.08C229.396 53.08 234.836 47.56 234.836 40.92C234.836 34.2 229.396 28.76 222.676 28.76ZM267.519 61C256.479 61 247.439 51.96 247.439 40.92C247.439 29.8 256.479 20.84 267.519 20.84C278.639 20.84 287.599 29.8 287.599 40.92C287.599 51.96 278.639 61 267.519 61ZM267.519 28.76C260.799 28.76 255.359 34.2 255.359 40.92C255.359 47.56 260.799 53.08 267.519 53.08C274.239 53.08 279.679 47.56 279.679 40.92C279.679 34.2 274.239 28.76 267.519 28.76ZM310.733 20.84C312.973 20.84 314.733 22.6 314.733 24.76C314.733 27 312.973 28.76 310.733 28.76H303.693V57C303.693 59.24 301.933 61 299.693 61C297.533 61 295.773 59.24 295.773 57V28.76H291.373C289.213 28.76 287.452 27 287.452 24.76C287.452 22.6 289.213 20.84 291.373 20.84H295.773C295.693 15.16 297.773 9.96 301.613 6.12C303.773 3.96 306.253 2.36 309.133 1.39999C311.133 0.599996 313.453 1.72 314.173 3.8C314.893 5.8 313.853 8.12 311.773 8.84C310.093 9.4 308.573 10.36 307.213 11.72C304.812 14.12 303.693 17.24 303.693 20.84H310.733ZM347.476 21.16C349.716 21.16 351.476 22.92 351.476 25.08V64.52C351.476 73.56 344.036 81 334.916 81C328.596 81 322.916 77.4 320.116 71.72C319.156 69.8 319.956 67.4 321.956 66.44C323.876 65.48 326.276 66.36 327.156 68.28C328.676 71.24 331.636 73.08 334.916 73.08C339.716 73.08 343.556 69.24 343.556 64.52V58.76C341.156 60.2 338.356 61 335.316 61C326.516 61 319.316 53.88 319.236 45.08C319.236 45 319.236 45 319.236 45V25.08C319.236 22.92 320.996 21.16 323.156 21.16C325.316 21.16 327.076 22.92 327.076 25.08V44.92C327.076 49.48 330.836 53.16 335.316 53.16C339.876 53.16 343.556 49.48 343.556 44.92V25.08C343.556 22.92 345.316 21.16 347.476 21.16Z" fill="#ffffff"/>
<path fill-rule="evenodd" clip-rule="evenodd" d="M56.5817 39.6455C55.5373 40.8719 55.2058 42.4788 55.2371 43.5203C55.238 43.5504 55.2385 43.5806 55.2385 43.6108V84.1906C55.2385 85.7422 54.0665 87 52.6208 87C51.1752 87 50.0032 85.7422 50.0032 84.1906V43.652C49.9484 41.4702 50.5834 38.3606 52.7174 35.8548C54.9647 33.2159 58.5328 31.6416 63.5882 32.0699C65.0294 32.192 66.1055 33.5449 65.9917 35.0917C65.878 36.6384 64.6174 37.7933 63.1762 37.6712C59.3899 37.3504 57.5288 38.5334 56.5817 39.6455Z" fill="#ffffff"/>
<path fill-rule="evenodd" clip-rule="evenodd" d="M37.4183 49.7619C38.4627 51.0069 38.7942 52.6383 38.7629 53.6956C38.762 53.7263 38.7615 53.7569 38.7615 53.7876V84.1479C38.7615 85.7231 39.9335 87 41.3792 87C42.8248 87 43.9968 85.7231 43.9968 84.1479V53.8294C44.0516 51.6144 43.4166 48.4574 41.2826 45.9135C39.0353 43.2344 35.4672 41.6361 30.4118 42.071C28.9706 42.1949 27.8945 43.5684 28.0083 45.1387C28.122 46.709 29.3826 47.8815 30.8238 47.7576C34.6101 47.4319 36.4712 48.6329 37.4183 49.7619Z" fill="#ffffff"/>
<path fill-rule="evenodd" clip-rule="evenodd" d="M47 6.42857C43.2392 6.42857 40.1905 9.59456 40.1905 13.5C40.1905 17.4054 43.2392 20.5714 47 20.5714C50.7608 20.5714 53.8095 17.4054 53.8095 13.5C53.8095 9.59456 50.7608 6.42857 47 6.42857ZM47 27C54.1797 27 60 20.9558 60 13.5C60 6.04416 54.1797 0 47 0C39.8203 0 34 6.04416 34 13.5C34 20.9558 39.8203 27 47 27Z" fill="#ffffff"/>
<path fill-rule="evenodd" clip-rule="evenodd" d="M62.3103 41C60.4821 41 59 42.567 59 44.5C59 46.433 60.4821 48 62.3103 48H78.4943C80.3225 48 81.8046 46.433 81.8046 44.5C81.8046 42.567 80.3225 41 78.4943 41H62.3103ZM87.6897 48C89.5179 48 91 46.433 91 44.5C91 42.567 89.5179 41 87.6897 41C85.8614 41 84.3793 42.567 84.3793 44.5C84.3793 46.433 85.8614 48 87.6897 48Z" fill="url(#paint0_linear_26_64)"/>
<path fill-rule="evenodd" clip-rule="evenodd" d="M71.2857 38C73.1004 38 74.5714 36.6569 74.5714 35C74.5714 33.3431 73.1004 32 71.2857 32C69.4711 32 68 33.3431 68 35C68 36.6569 69.4711 38 71.2857 38ZM79.6825 32C77.8679 32 76.3968 33.3431 76.3968 35C76.3968 36.6569 77.8679 38 79.6825 38H87.7143C89.5289 38 91 36.6569 91 35C91 33.3431 89.5289 32 87.7143 32H79.6825Z" fill="url(#paint1_linear_26_64)"/>
<path fill-rule="evenodd" clip-rule="evenodd" d="M3.3 38C5.12254 38 6.6 36.6569 6.6 35C6.6 33.3431 5.12254 32 3.3 32C1.47746 32 0 33.3431 0 35C0 36.6569 1.47746 38 3.3 38ZM12.1 32C10.2775 32 8.8 33.3431 8.8 35C8.8 36.6569 10.2775 38 12.1 38H40.7C42.5225 38 44 36.6569 44 35C44 33.3431 42.5225 32 40.7 32H12.1Z" fill="url(#paint2_linear_26_64)"/>
<path fill-rule="evenodd" clip-rule="evenodd" d="M6.33871 48C8.18263 48 9.67742 46.433 9.67742 44.5C9.67742 42.567 8.18263 41 6.33871 41C4.49479 41 3 42.567 3 44.5C3 46.433 4.49479 48 6.33871 48ZM22.6613 48C24.5052 48 26 46.433 26 44.5C26 42.567 24.5052 41 22.6613 41C20.8174 41 19.3226 42.567 19.3226 44.5C19.3226 46.433 20.8174 48 22.6613 48Z" fill="url(#paint3_linear_26_64)"/>
<defs>
<linearGradient id="paint0_linear_26_64" x1="91" y1="44.8889" x2="59.3678" y2="44.8889" gradientUnits="userSpaceOnUse">
<stop stop-color="#101183"/>
<stop offset="1" stop-color="#6EDAF9"/>
</linearGradient>
<linearGradient id="paint1_linear_26_64" x1="90.6349" y1="35" x2="68.0012" y2="35.3998" gradientUnits="userSpaceOnUse">
<stop stop-color="#72E2FE"/>
<stop offset="1" stop-color="#06117D"/>
</linearGradient>
<linearGradient id="paint2_linear_26_64" x1="0" y1="35.3333" x2="44" y2="35.3333" gradientUnits="userSpaceOnUse">
<stop stop-color="#E603FF"/>
<stop offset="1" stop-color="#06117D"/>
</linearGradient>
<linearGradient id="paint3_linear_26_64" x1="3" y1="44.8889" x2="26" y2="44.8889" gradientUnits="userSpaceOnUse">
<stop stop-color="#0E1182"/>
<stop offset="1" stop-color="#E004FC"/>
</linearGradient>
</defs>
</svg>
