<svg width="347" height="95" viewBox="0 0 347 95" fill="none" xmlns="http://www.w3.org/2000/svg">
<path d="M147.08 68.32C142.52 68.32 138.28 66.8 134.92 64.24V84.16C134.92 86.32 133.16 88.08 131 88.08C128.76 88.08 127 86.32 127 84.16V48.32V48.24C127 37.2 136.04 28.16 147.08 28.16C158.2 28.16 167.16 37.2 167.16 48.24C167.16 59.36 158.2 68.32 147.08 68.32ZM147.08 36.08C140.36 36.08 134.92 41.52 134.92 48.24V48.32C134.92 54.96 140.36 60.4 147.08 60.4C153.8 60.4 159.24 54.96 159.24 48.24C159.24 41.6 153.8 36.08 147.08 36.08ZM191.848 27.92C194.088 27.92 195.848 29.68 195.848 31.84C195.848 34 194.088 35.84 191.848 35.84C185.128 35.84 179.688 41.28 179.688 48V64.08C179.688 66.24 177.928 68.08 175.768 68.08C173.528 68.08 171.768 66.24 171.768 64.08V48C171.768 36.88 180.808 27.92 191.848 27.92ZM215.676 68C204.636 68 195.596 58.96 195.596 47.92C195.596 36.8 204.636 27.84 215.676 27.84C226.796 27.84 235.756 36.8 235.756 47.92C235.756 58.96 226.796 68 215.676 68ZM215.676 35.76C208.956 35.76 203.516 41.2 203.516 47.92C203.516 54.56 208.956 60.08 215.676 60.08C222.396 60.08 227.836 54.56 227.836 47.92C227.836 41.2 222.396 35.76 215.676 35.76ZM260.519 68C249.479 68 240.439 58.96 240.439 47.92C240.439 36.8 249.479 27.84 260.519 27.84C271.639 27.84 280.599 36.8 280.599 47.92C280.599 58.96 271.639 68 260.519 68ZM260.519 35.76C253.799 35.76 248.359 41.2 248.359 47.92C248.359 54.56 253.799 60.08 260.519 60.08C267.239 60.08 272.679 54.56 272.679 47.92C272.679 41.2 267.239 35.76 260.519 35.76ZM303.733 27.84C305.973 27.84 307.733 29.6 307.733 31.76C307.733 34 305.973 35.76 303.733 35.76H296.693V64C296.693 66.24 294.933 68 292.693 68C290.533 68 288.773 66.24 288.773 64V35.76H284.373C282.213 35.76 280.452 34 280.452 31.76C280.452 29.6 282.213 27.84 284.373 27.84H288.773C288.693 22.16 290.773 16.96 294.613 13.12C296.773 10.96 299.253 9.36 302.133 8.39999C304.133 7.6 306.453 8.72 307.173 10.8C307.893 12.8 306.853 15.12 304.773 15.84C303.093 16.4 301.573 17.36 300.213 18.72C297.812 21.12 296.693 24.24 296.693 27.84H303.733ZM340.476 28.16C342.716 28.16 344.476 29.92 344.476 32.08V71.52C344.476 80.56 337.036 88 327.916 88C321.596 88 315.916 84.4 313.116 78.72C312.156 76.8 312.956 74.4 314.956 73.44C316.876 72.48 319.276 73.36 320.156 75.28C321.676 78.24 324.636 80.08 327.916 80.08C332.716 80.08 336.556 76.24 336.556 71.52V65.76C334.156 67.2 331.356 68 328.316 68C319.516 68 312.316 60.88 312.236 52.08C312.236 52 312.236 52 312.236 52V32.08C312.236 29.92 313.996 28.16 316.156 28.16C318.316 28.16 320.076 29.92 320.076 32.08V51.92C320.076 56.48 323.836 60.16 328.316 60.16C332.876 60.16 336.556 56.48 336.556 51.92V32.08C336.556 29.92 338.316 28.16 340.476 28.16Z" fill="#171717"/>
<path d="M69.5028 74.0809C77.4266 67.184 82.4961 57.5593 83.715 47.0983C84.934 36.6374 82.2143 26.0967 76.0904 17.5478C69.9665 8.99893 60.8812 3.06006 50.6202 0.898352C40.3591 -1.26335 29.6643 0.508451 20.6375 5.86553C11.6107 11.2226 4.90477 19.7776 1.83757 29.8491C-1.22964 39.9207 -0.436302 50.7805 4.06168 60.2943C8.55967 69.8082 16.437 77.288 26.1456 81.2638C35.8542 85.2396 46.6919 85.4239 56.5289 81.7805L72.4045 95L69.5028 74.0809Z" fill="url(#paint0_linear_359_6185)"/>
<path d="M41.9233 81.8691C63.8917 81.8691 81.7007 63.9784 81.7007 41.9092C81.7007 19.84 63.8917 1.94937 41.9233 1.94937C19.9549 1.94937 2.146 19.84 2.146 41.9092C2.146 63.9784 19.9549 81.8691 41.9233 81.8691Z" fill="url(#paint1_linear_359_6185)"/>
<path d="M74.4179 42.1089C74.5276 24.082 60.0695 9.37899 42.1249 9.26887C24.1803 9.15875 9.54443 23.6832 9.43481 41.7101C9.32519 59.7371 23.7833 74.44 41.7279 74.5502C59.6725 74.6603 74.3083 60.1358 74.4179 42.1089Z" fill="url(#paint2_linear_359_6185)"/>
<path d="M15.0493 41.5725C15.0476 36.2326 16.6222 31.0121 19.5741 26.5712C22.526 22.1304 26.7225 18.6687 31.6329 16.624C36.5434 14.5793 41.9471 14.0434 47.1607 15.0841C52.3743 16.1248 57.1636 18.6953 60.9229 22.4706C64.6822 26.2459 67.2425 31.0563 68.2802 36.2935C69.3179 41.5307 68.7862 46.9594 66.7524 51.893C64.7186 56.8266 61.2741 61.0436 56.8546 64.0104C52.435 66.9773 47.2388 68.5609 41.9233 68.5609C40.8558 68.56 39.7895 68.4919 38.7305 68.3571L26.3828 76.9428L27.6528 64.4232C23.7983 61.9976 20.6199 58.6286 18.4155 54.6319C16.2111 50.6352 15.0528 46.1417 15.0493 41.5725Z" fill="url(#paint3_linear_359_6185)"/>
<path d="M30.8807 63.0232L29.1873 61.96C24.2982 58.8752 20.6825 54.1204 19.0057 48.5705C17.3289 43.0206 17.7038 37.049 20.0614 31.7547C22.4189 26.4603 26.6006 22.1995 31.8367 19.7562C37.0729 17.313 43.0113 16.8517 48.5591 18.4573C54.1069 20.0629 58.8908 23.6273 62.0305 28.4946C65.1702 33.3619 66.4544 39.2047 65.6468 44.9476C64.8392 50.6905 61.9941 55.9472 57.6351 59.7503C53.2761 63.5534 47.6966 65.647 41.9231 65.6459C40.9709 65.642 40.0197 65.5828 39.0743 65.4686L37.9189 65.3269L29.152 71.9367L30.8807 63.0232Z" fill="url(#paint4_linear_359_6185)"/>
<path d="M34.5497 42.7509C34.5497 43.2766 34.3945 43.7906 34.1038 44.2277C33.813 44.6648 33.3998 45.0055 32.9163 45.2067C32.4328 45.4078 31.9008 45.4605 31.3876 45.3579C30.8743 45.2554 30.4028 45.0022 30.0328 44.6305C29.6627 44.2587 29.4107 43.7851 29.3087 43.2695C29.2066 42.7539 29.259 42.2194 29.4592 41.7337C29.6595 41.248 29.9986 40.8329 30.4337 40.5408C30.8689 40.2487 31.3804 40.0928 31.9038 40.0928C32.6055 40.0928 33.2785 40.3729 33.7747 40.8714C34.2709 41.3699 34.5497 42.046 34.5497 42.7509Z" fill="url(#paint5_linear_359_6185)"/>
<path d="M44.3222 42.7509C44.3222 43.2766 44.167 43.7906 43.8762 44.2277C43.5855 44.6648 43.1723 45.0055 42.6888 45.2067C42.2053 45.4078 41.6733 45.4605 41.16 45.3579C40.6468 45.2554 40.1753 45.0022 39.8052 44.6305C39.4352 44.2587 39.1832 43.7851 39.0811 43.2695C38.979 42.7539 39.0314 42.2194 39.2317 41.7337C39.4319 41.248 39.7711 40.8329 40.2062 40.5408C40.6413 40.2487 41.1529 40.0928 41.6762 40.0928C42.378 40.0928 43.051 40.3729 43.5472 40.8714C44.0434 41.3699 44.3222 42.046 44.3222 42.7509Z" fill="url(#paint6_linear_359_6185)"/>
<path d="M54.5975 42.7509C54.5975 43.2766 54.4424 43.7906 54.1516 44.2277C53.8609 44.6648 53.4476 45.0055 52.9642 45.2067C52.4807 45.4078 51.9487 45.4605 51.4354 45.3579C50.9221 45.2554 50.4507 45.0022 50.0807 44.6305C49.7106 44.2587 49.4586 43.7851 49.3565 43.2695C49.2544 42.7539 49.3068 42.2194 49.5071 41.7337C49.7073 41.248 50.0465 40.8329 50.4816 40.5408C50.9167 40.2487 51.4283 40.0928 51.9516 40.0928C52.6534 40.0928 53.3264 40.3729 53.8226 40.8714C54.3188 41.3699 54.5975 42.046 54.5975 42.7509Z" fill="url(#paint7_linear_359_6185)"/>
<defs>
<linearGradient id="paint0_linear_359_6185" x1="38.9069" y1="-4.82875" x2="46.2499" y2="107.861" gradientUnits="userSpaceOnUse">
<stop stop-color="#E104FC"/>
<stop offset="1" stop-color="#0B1180"/>
</linearGradient>
<linearGradient id="paint1_linear_359_6185" x1="69.7675" y1="87.327" x2="16.035" y2="0.485594" gradientUnits="userSpaceOnUse">
<stop stop-color="#DC04F9"/>
<stop offset="1" stop-color="#141185"/>
</linearGradient>
<linearGradient id="paint2_linear_359_6185" x1="27.9126" y1="9.48892" x2="59.927" y2="82.8512" gradientUnits="userSpaceOnUse">
<stop stop-color="#DB04F9"/>
<stop offset="1" stop-color="#0A1180"/>
</linearGradient>
<linearGradient id="paint3_linear_359_6185" x1="15.0493" y1="45.7634" x2="68.7972" y2="45.7634" gradientUnits="userSpaceOnUse">
<stop stop-color="#6732EB"/>
<stop offset="1" stop-color="#71C4F9"/>
</linearGradient>
<linearGradient id="paint4_linear_359_6185" x1="17.9685" y1="44.7267" x2="65.8777" y2="44.7267" gradientUnits="userSpaceOnUse">
<stop stop-color="#71C4F9"/>
<stop offset="1" stop-color="#6732EB"/>
</linearGradient>
<linearGradient id="paint5_linear_359_6185" x1="29.249" y1="42.7509" x2="34.5497" y2="42.7509" gradientUnits="userSpaceOnUse">
<stop stop-color="#6732EB"/>
<stop offset="1" stop-color="#71C4F9"/>
</linearGradient>
<linearGradient id="paint6_linear_359_6185" x1="39.0215" y1="42.7509" x2="44.3222" y2="42.7509" gradientUnits="userSpaceOnUse">
<stop stop-color="#6732EB"/>
<stop offset="1" stop-color="#71C4F9"/>
</linearGradient>
<linearGradient id="paint7_linear_359_6185" x1="49.2968" y1="42.7509" x2="54.5975" y2="42.7509" gradientUnits="userSpaceOnUse">
<stop stop-color="#6732EB"/>
<stop offset="1" stop-color="#71C4F9"/>
</linearGradient>
</defs>
</svg>
